<svg width="384" height="232" viewBox="0 0 384 232" fill="none" xmlns="http://www.w3.org/2000/svg">
<rect width="384" height="232" fill="white"/>
<path fill-rule="evenodd" clip-rule="evenodd" d="M164.213 83.0477L172.97 113.537C173.163 114.197 173.203 114.892 173.087 115.569C172.971 116.247 172.702 116.889 172.301 117.447C171.9 118.006 171.377 118.465 170.772 118.792C170.167 119.118 169.496 119.303 168.809 119.331L135.336 120.844C134.371 120.887 133.418 120.619 132.615 120.081C131.813 119.543 131.204 118.762 130.878 117.853C129.679 114.558 121.302 91.1094 119.972 87.1412C119.75 86.5026 119.682 85.8208 119.772 85.1509C119.862 84.4809 120.109 83.8416 120.491 83.2843C120.874 82.7271 121.382 82.2676 121.975 81.9428C122.568 81.6181 123.229 81.4371 123.905 81.4146C123.905 81.3268 154.428 80.0022 159.092 79.7998C159.471 79.7834 159.679 79.7743 159.686 79.774C160.697 79.7405 161.69 80.0439 162.51 80.6365C163.329 81.2291 163.928 82.0773 164.213 83.0477ZM125.948 88.5985C125.962 88.3415 125.979 88.0148 126.031 87.602C126.174 86.8501 127.06 86.6198 127.836 86.4184C128.481 86.2508 129.049 86.1031 129.049 85.6915C129.049 85.1215 127.939 85.0655 127.518 85.0959C125.301 85.2574 124.078 87.222 124.773 88.5976C125.054 89.1942 125.222 89.5295 125.574 89.4592C125.907 89.3932 125.919 89.1653 125.948 88.5985ZM165.131 113.336C165.42 113.303 165.7 113.211 165.954 113.067C168.391 111.762 166.401 107.765 165.519 108.173C165.06 108.367 165.244 109.018 165.446 109.732C165.678 110.551 165.933 111.451 165.268 111.837C164.884 112.009 164.574 112.126 164.329 112.218C163.761 112.432 163.545 112.513 163.576 112.837C163.626 113.336 164.795 113.367 165.131 113.336ZM159.495 95.0151C160.145 95.0525 160.63 95.5113 160.649 96.1055C160.654 96.273 160.617 96.4393 160.54 96.5917C160.462 96.7441 160.347 96.8785 160.203 96.9847C160.184 97.0058 160.162 97.025 160.139 97.042L142.567 108.079C142.299 108.248 141.989 108.354 141.665 108.388C141.341 108.422 141.012 108.383 140.709 108.274C140.405 108.166 140.136 107.992 139.926 107.767C139.716 107.542 139.571 107.274 139.504 106.986L139.041 105.012L134.284 106.803C134.09 106.877 133.88 106.916 133.669 106.917C133.169 106.917 132.7 106.691 132.405 106.277C131.989 105.698 132.089 104.992 132.651 104.522L138.11 99.9603L142.558 94.974C142.805 94.6984 143.121 94.4801 143.481 94.3374C143.841 94.1946 144.233 94.1317 144.626 94.1538L159.495 95.0151ZM143.807 95.1133C143.601 95.2023 143.419 95.3319 143.276 95.4924L139.615 99.5992L151.178 97.404L159.407 95.8419L144.566 94.9806C144.533 94.978 144.501 94.978 144.468 94.978H144.468C144.239 94.978 144.013 95.0243 143.807 95.1133ZM133.181 105.829C133.314 106.016 133.581 106.171 133.929 106.039L139.199 104.054H139.201L158.113 96.9353L148.124 98.8317L138.668 100.627L133.279 105.13C133.002 105.36 133.047 105.642 133.181 105.829ZM141.558 107.561C141.731 107.543 141.896 107.486 142.039 107.397L156.002 98.6293L150.584 100.669L139.907 104.686L140.406 106.815C140.442 106.968 140.519 107.111 140.631 107.231C140.744 107.35 140.887 107.443 141.049 107.501C141.211 107.558 141.386 107.579 141.558 107.561Z" fill="#9578D3"/>
<path d="M203.128 57.8618C202.484 55.7106 201.728 53.5943 200.865 51.5215C200.811 51.4215 200.8 51.3044 200.833 51.1959C200.866 51.0874 200.94 50.9964 201.04 50.943C201.141 50.8896 201.258 50.8781 201.366 50.911C201.475 50.944 201.566 51.0187 201.619 51.1187C203.072 53.326 204.125 55.7724 204.728 58.3454C204.754 58.4485 204.757 58.5562 204.736 58.6605C204.715 58.7648 204.671 58.8631 204.608 58.9482C204.544 59.0334 204.462 59.1033 204.368 59.1529C204.274 59.2024 204.17 59.2303 204.063 59.2346L202.325 59.3296C201.983 63.0099 200.443 66.1515 196.769 65.9045C196.522 66.4403 196.306 67.1737 195.763 68.5512C195.747 68.6097 195.719 68.6644 195.682 68.7121C195.644 68.7598 195.598 68.7995 195.545 68.8289C195.491 68.8584 195.433 68.877 195.373 68.8836C195.312 68.8902 195.251 68.8848 195.193 68.8676C195.136 68.8501 195.083 68.8214 195.037 68.7831C194.991 68.7449 194.953 68.6979 194.925 68.6448C194.898 68.5918 194.881 68.5338 194.876 68.4742C194.871 68.4145 194.877 68.3545 194.896 68.2976C195.093 67.1668 195.368 66.051 195.719 64.9583C195.774 64.8192 195.873 64.7021 196.001 64.6252C196.13 64.5484 196.28 64.5162 196.428 64.5337C199.726 64.9612 200.746 61.9383 200.955 58.6076C200.97 58.4284 201.05 58.2611 201.182 58.1382C201.313 58.0152 201.485 57.9455 201.665 57.9426L203.128 57.8618Z" fill="#454545"/>
<path d="M195.926 59.2989C196.012 59.6244 196.166 59.9281 196.377 60.1901C196.589 60.452 196.853 60.6662 197.153 60.8187C197.453 60.9712 197.782 61.0585 198.119 61.0749C198.455 61.0913 198.791 61.0365 199.104 60.9139C199.424 60.7619 200.176 60.2441 199.904 59.8024C199.588 59.1839 198.019 60.1824 197.344 59.1554C196.843 58.327 196.795 58.0525 196.452 58.0648C195.954 58.0762 195.876 59.1146 195.926 59.2989Z" fill="#454545"/>
<path d="M198.119 54.0837C198.314 54.3587 198.58 54.5661 198.86 54.6601C199.139 54.7541 199.409 54.7271 199.61 54.5851C199.811 54.4431 199.926 54.1976 199.93 53.9027C199.935 53.6078 199.828 53.2877 199.633 53.0127C199.439 52.7377 199.172 52.5304 198.893 52.4364C198.613 52.3423 198.343 52.3693 198.143 52.5114C197.942 52.6534 197.827 52.8988 197.822 53.1937C197.818 53.4886 197.925 53.8088 198.119 54.0837V54.0837Z" fill="#454545"/>
<path d="M201.894 43.8674C201.573 43.8921 200.783 43.9462 200.408 44.0184C200.45 42.7834 200.448 41.442 199.516 40.6279C198.641 39.8441 197.224 40.0227 196.155 40.0246C194.019 39.9363 191.879 40.0857 189.776 40.4702C188.803 40.5363 187.867 40.8758 187.077 41.4496C185.499 42.8984 186.286 47.0546 186.141 49.7859C186.138 49.8832 186.154 49.9801 186.19 50.0707C186.225 50.1614 186.279 50.2438 186.347 50.3131C186.416 50.3823 186.498 50.4369 186.588 50.4735C186.678 50.5101 186.775 50.5279 186.872 50.5259C187.118 50.5202 186.805 50.3217 187.329 53.2163C187.506 54.1773 187.732 55.1286 188.007 56.0663C185.807 57.669 187.068 60.7736 189.375 61.3768C189.676 62.2728 190.117 63.1152 190.683 63.8725C190.444 64.9089 190.29 65.9539 190.1 67.0056C190.074 67.1148 190.092 67.2301 190.15 67.3261C190.209 67.4222 190.303 67.4911 190.412 67.5176C190.521 67.5442 190.636 67.5263 190.732 67.4679C190.829 67.4094 190.897 67.3153 190.924 67.206C191.332 65.9568 191.335 66.1221 192.159 63.4516C192.419 62.6061 192.646 61.7559 192.891 60.9142C192.925 60.8065 192.93 60.6917 192.906 60.5814C192.882 60.471 192.83 60.369 192.754 60.2853C192.366 59.7894 191.793 60.1827 190.421 60.1048C189.939 60.1277 189.463 59.9799 189.079 59.6874C188.694 59.3948 188.425 58.9762 188.318 58.505C188.114 57.5027 189.33 56.7152 190.218 56.7114C190.707 56.7417 191.19 56.8278 191.659 56.9679C192.324 57.071 193.005 56.9652 193.607 56.665C194.209 56.3648 194.703 55.8851 195.02 55.2921C195.635 54.3549 196.018 53.2854 196.139 52.1713C196.248 51.6362 196.278 51.0879 196.228 50.544C196.323 50.544 208.27 50.7701 208.673 50.9069C208.784 50.9584 208.912 50.9639 209.027 50.9223C209.143 50.8807 209.237 50.7953 209.29 50.6846C209.975 49.3026 210.511 47.8521 210.89 46.3573C211.15 42.8537 205.395 43.6099 201.894 43.8674ZM208.57 49.9816C202.039 49.2952 195.472 48.9954 188.905 49.0838C188.855 49.0838 187.629 49.043 187.575 49.0487C187.575 48.0113 187.496 46.9739 187.485 45.9336C187.479 44.9602 187.556 43.9881 187.714 43.0276C188.061 42.0652 189.044 42.1032 190.089 41.8648C192.087 41.5033 194.119 41.3625 196.148 41.4449C197.9 41.4449 198.808 41.1713 198.983 42.6495C199.173 44.1951 198.653 45.0463 199.258 45.4843C199.657 45.775 199.917 45.5109 200.675 45.3893C201.06 45.3266 204.442 45.014 205.71 44.9675C206.838 44.8857 207.972 44.9818 209.071 45.2525C209.304 45.3246 209.501 45.4838 209.62 45.6971C209.965 46.4495 209.454 47.3871 208.57 49.9816V49.9816Z" fill="#454545"/>
<path d="M102.23 91.604C102.617 91.6126 103.619 91.6753 104.174 91.6734C112.059 91.6487 110.036 92.0448 114.417 91.8843C114.477 91.8887 114.538 91.8812 114.596 91.8622C114.654 91.8431 114.707 91.8129 114.753 91.7732C114.799 91.7335 114.837 91.6851 114.864 91.6308C114.892 91.5765 114.908 91.5174 114.913 91.4568C114.917 91.3961 114.91 91.3352 114.891 91.2775C114.872 91.2197 114.841 91.1663 114.802 91.1203C114.762 91.0742 114.714 91.0364 114.659 91.0091C114.605 90.9817 114.546 90.9654 114.485 90.9609C113.8 90.8203 113.085 90.6464 112.313 90.5552C109.59 90.2374 106.843 90.1614 104.105 90.3282C103.439 90.4192 102.781 90.5647 102.139 90.7633C102.027 90.7754 101.925 90.8312 101.855 90.9186C101.785 91.006 101.752 91.1177 101.764 91.2292C101.776 91.3407 101.832 91.4428 101.92 91.5131C102.007 91.5834 102.119 91.6161 102.23 91.604V91.604Z" fill="#9578D3"/>
<path d="M110.805 98.4487C111.073 98.5358 111.348 98.5994 111.627 98.6387C111.983 98.6719 114.477 98.5959 115.08 98.5617C115.468 98.5393 115.851 98.4655 116.22 98.3423C116.339 98.3407 116.454 98.2927 116.539 98.2084C116.625 98.1241 116.674 98.01 116.677 97.8901C116.68 97.7703 116.636 97.6539 116.555 97.5655C116.474 97.4771 116.362 97.4235 116.242 97.416C115.351 97.122 114.404 97.0407 113.476 97.1785C111.571 97.2194 111.46 97.2935 110.755 97.5975C110.643 97.607 110.538 97.6585 110.462 97.7418C110.385 97.8251 110.343 97.934 110.344 98.0468C110.353 98.1605 110.407 98.2659 110.493 98.3409C110.579 98.4159 110.691 98.4545 110.805 98.4487V98.4487Z" fill="#9578D3"/>
<path d="M102.207 109.866C110.039 110.231 107.663 109.995 112.176 110.189C118.541 110.463 117.788 110.597 123.013 110.647C123.075 110.653 123.137 110.647 123.196 110.628C123.255 110.61 123.31 110.58 123.357 110.54C123.405 110.501 123.444 110.452 123.472 110.397C123.5 110.341 123.517 110.281 123.522 110.22C123.526 110.158 123.518 110.096 123.499 110.037C123.479 109.978 123.448 109.924 123.406 109.878C123.365 109.832 123.316 109.794 123.26 109.767C123.204 109.74 123.143 109.725 123.081 109.722C121.516 109.487 120.733 109.342 119.355 109.211C114.757 108.793 110.14 108.616 105.523 108.681C104.193 108.737 102.972 108.912 102.161 109.018C102.049 109.026 101.943 109.076 101.866 109.159C101.79 109.242 101.748 109.352 101.75 109.465C101.759 109.578 101.811 109.684 101.897 109.759C101.982 109.834 102.094 109.872 102.207 109.866V109.866Z" fill="#9578D3"/>
<path d="M117.664 117.104C117.877 117.199 118.1 117.269 118.329 117.312C118.614 117.353 120.616 117.332 121.141 117.306C121.456 117.291 121.766 117.219 122.055 117.093C122.178 117.097 122.298 117.051 122.389 116.967C122.479 116.882 122.532 116.765 122.536 116.642C122.536 116.519 122.488 116.4 122.403 116.312C122.317 116.223 122.201 116.171 122.078 116.167C121.863 116.075 121.64 116.001 121.413 115.946C120.362 115.857 119.305 115.868 118.257 115.98C118.028 116.053 117.805 116.146 117.592 116.256C117.479 116.266 117.375 116.32 117.302 116.406C117.23 116.492 117.194 116.604 117.204 116.716C117.213 116.829 117.267 116.933 117.353 117.006C117.44 117.078 117.551 117.114 117.664 117.104V117.104Z" fill="#9578D3"/>
<path d="M115.834 132.518C118.684 132.786 118.315 132.816 125.871 132.837C129.218 132.964 132.57 132.893 135.908 132.626C135.971 132.629 136.033 132.619 136.092 132.597C136.15 132.575 136.204 132.541 136.249 132.498C136.295 132.455 136.331 132.403 136.355 132.345C136.38 132.288 136.393 132.226 136.393 132.163C136.393 132.1 136.38 132.038 136.355 131.981C136.331 131.923 136.295 131.871 136.249 131.828C136.204 131.785 136.15 131.751 136.092 131.729C136.033 131.707 135.971 131.697 135.908 131.7C134.561 131.598 133.658 131.496 132.298 131.463C128.988 131.383 120.401 131.378 119.06 131.422C117.825 131.462 116.361 131.621 115.836 131.669C115.722 131.67 115.614 131.715 115.533 131.794C115.452 131.873 115.405 131.98 115.401 132.093C115.408 132.205 115.456 132.31 115.536 132.388C115.616 132.467 115.722 132.513 115.834 132.518V132.518Z" fill="#9578D3"/>
<path d="M154.611 154.904C155.001 155.018 155.398 155.106 155.799 155.167C156.386 155.239 159.992 155.343 160.829 155.353C161.389 155.36 161.948 155.314 162.498 155.215C162.619 155.221 162.738 155.18 162.829 155.1C162.92 155.02 162.976 154.907 162.985 154.787C162.994 154.666 162.955 154.546 162.877 154.454C162.799 154.361 162.688 154.302 162.568 154.291C160.878 153.898 161.544 153.961 158.589 153.855C155.861 153.753 155.748 153.81 154.633 154.056C154.524 154.057 154.419 154.101 154.34 154.178C154.262 154.255 154.217 154.359 154.214 154.469C154.211 154.579 154.251 154.685 154.325 154.767C154.399 154.848 154.501 154.897 154.611 154.904V154.904Z" fill="#9578D3"/>
<path d="M153.145 163.155C153.307 163.174 154.147 163.303 154.608 163.323C154.646 163.323 160.103 163.446 160.484 163.439C161.107 163.429 161.727 163.358 162.336 163.225C162.455 163.22 162.568 163.169 162.65 163.082C162.733 162.996 162.779 162.881 162.779 162.762C162.779 162.643 162.733 162.528 162.65 162.442C162.568 162.356 162.455 162.304 162.336 162.299C161.703 162.171 161.061 162.089 160.415 162.054C155.31 161.769 154.414 161.904 153.076 162.309C153.021 162.314 152.967 162.329 152.917 162.355C152.868 162.38 152.824 162.415 152.788 162.457C152.751 162.5 152.724 162.549 152.707 162.602C152.69 162.655 152.683 162.711 152.688 162.766C152.692 162.822 152.708 162.876 152.733 162.926C152.759 162.975 152.793 163.019 152.836 163.055C152.878 163.091 152.927 163.119 152.98 163.136C153.033 163.153 153.089 163.159 153.145 163.155V163.155Z" fill="#9578D3"/>
<path d="M179.19 128.781C179.156 128.693 179.097 128.618 179.019 128.565C178.941 128.513 178.849 128.485 178.755 128.487C178.34 128.21 177.958 127.887 177.615 127.524C176.554 126.417 176.526 125.827 176.015 125.838C171.576 125.933 146.01 125.922 143.548 126.44C142.326 126.694 141.244 127.16 141.147 128.404C141.033 129.734 142.513 130.361 143.823 130.602C146.169 131.027 169.866 130.23 178.688 129.421C178.773 129.459 178.869 129.467 178.959 129.444C179.049 129.421 179.13 129.369 179.187 129.296C179.245 129.222 179.276 129.132 179.276 129.039C179.277 128.946 179.246 128.855 179.19 128.781Z" fill="#454545"/>
<path d="M198.624 77.3804C198.724 77.692 199.053 78.9679 199.082 79.0705C199.51 80.3486 199.868 81.6488 200.156 82.9655C200.536 84.7487 200.41 84.9918 201.14 88.7349C201.144 88.7964 201.16 88.8564 201.188 88.9115C201.216 88.9667 201.254 89.0159 201.3 89.0563C201.347 89.0967 201.401 89.1275 201.459 89.147C201.518 89.1665 201.58 89.1743 201.641 89.17C201.703 89.1656 201.763 89.1492 201.818 89.1216C201.873 89.094 201.922 89.0558 201.963 89.0093C202.003 88.9627 202.034 88.9086 202.053 88.8501C202.073 88.7916 202.081 88.7299 202.076 88.6684C202.12 87.9472 202.128 87.2243 202.099 86.5024C201.895 83.8386 201.32 81.2165 200.389 78.7123C200.109 78.1211 199.781 77.5542 199.407 77.0175C199.383 76.9661 199.349 76.9199 199.308 76.8816C199.266 76.8432 199.217 76.8134 199.164 76.7939C199.111 76.7744 199.054 76.7656 198.998 76.7679C198.941 76.7703 198.885 76.7838 198.834 76.8076C198.783 76.8314 198.736 76.8651 198.698 76.9068C198.66 76.9485 198.63 76.9973 198.61 77.0505C198.591 77.1037 198.582 77.1602 198.584 77.2168C198.587 77.2735 198.6 77.329 198.624 77.3804V77.3804Z" fill="#454545"/>
<path d="M209.141 85.3129C206.058 79.9929 203.027 74.405 197.114 72.6693C197.189 72.3948 197.485 71.6899 197.589 71.4267C197.656 71.2741 197.665 71.1027 197.614 70.9442C197.564 70.7856 197.458 70.6506 197.316 70.5641C194.498 68.8109 191.357 67.6399 188.079 67.1204C187.911 67.0937 187.739 67.1265 187.593 67.2133C187.447 67.3 187.335 67.4352 187.278 67.5954L186.661 69.218C178.712 70.8833 177.234 81.0084 175.275 88.3225C175.25 88.4147 175.244 88.5109 175.257 88.6056C175.27 88.7002 175.302 88.7912 175.351 88.8732C175.4 88.9552 175.465 89.0264 175.542 89.0826C175.619 89.1388 175.707 89.1788 175.8 89.2003C181.137 90.3214 186.561 90.9753 192.011 91.1544C192.169 91.1635 192.325 91.1131 192.448 91.0131C192.571 90.9131 192.653 90.7707 192.676 90.6139C192.961 88.4289 193.436 86.2828 193.81 84.114C194.834 84.167 195.86 84.154 196.883 84.075C198.733 83.9126 198.736 82.8514 196.998 82.6947C196.005 82.6555 195.012 82.6926 194.025 82.8058C194.135 82.0857 194.274 81.1623 194.345 80.4441C194.355 80.3344 194.323 80.225 194.254 80.1387C194.186 80.0524 194.086 79.996 193.977 79.9811C193.868 79.9663 193.757 79.9942 193.668 80.0591C193.579 80.1239 193.518 80.2207 193.499 80.3292C193.234 82.2881 192.051 86.9972 191.533 89.8482C186.605 89.5631 181.702 88.9435 176.858 87.9938C178.68 80.9989 180.144 71.7991 187.308 70.5413C187.429 70.5184 187.543 70.4656 187.638 70.3879C187.734 70.3101 187.809 70.2097 187.857 70.0958L188.405 68.6204C191.103 69.1054 193.696 70.06 196.065 71.441C195.996 71.6614 195.904 71.8827 195.813 72.106C195.565 72.8992 195.409 73.1415 195.631 73.531C195.677 73.6108 195.74 73.6801 195.814 73.7344C195.889 73.7887 195.974 73.8268 196.065 73.8464C201.68 75.1023 204.9 80.5914 207.954 85.4525C207.014 86.1786 206.029 86.8434 205.004 87.4428C204.896 87.5003 204.814 87.5977 204.775 87.7144C204.737 87.8312 204.746 87.9582 204.799 88.0688C204.861 88.1768 204.962 88.2567 205.081 88.2921C205.2 88.3275 205.329 88.3156 205.439 88.2588C206.538 87.6888 208.289 86.5289 209.006 86.0368C209.118 85.9571 209.194 85.8371 209.219 85.7021C209.244 85.567 209.216 85.4275 209.141 85.3129V85.3129Z" fill="#454545"/>
<path d="M202.648 110.188C202.854 109.134 203.006 108.069 203.105 106.999C203.112 106.878 203.166 106.765 203.254 106.682C203.343 106.6 203.46 106.555 203.581 106.557C203.703 106.56 203.818 106.608 203.904 106.694C203.99 106.779 204.04 106.894 204.043 107.015C204.028 108.308 203.944 109.599 203.791 110.883C203.777 111.037 203.706 111.18 203.592 111.285C203.478 111.389 203.329 111.448 203.174 111.448C196.413 111.577 187.974 112.292 179.441 111.638C179.352 111.633 179.265 111.611 179.184 111.572C179.104 111.533 179.032 111.479 178.972 111.412C178.913 111.346 178.867 111.268 178.837 111.184C178.808 111.099 178.796 111.01 178.801 110.921C179.086 105.791 178.978 108.161 179.327 103.81C179.329 103.754 179.341 103.7 179.364 103.649C179.386 103.598 179.419 103.552 179.459 103.514C179.499 103.476 179.547 103.446 179.599 103.426C179.651 103.406 179.706 103.397 179.761 103.399C179.873 103.404 179.978 103.452 180.055 103.534C180.132 103.615 180.174 103.723 180.173 103.835C180.197 106.79 180.299 107.011 180.196 110.303C188.044 110.812 195.26 110.113 202.648 110.188Z" fill="#454545"/>
<path d="M193.045 92.5782C196.994 93.1007 202.249 94.0345 207.221 92.449C210.617 91.3641 214.239 88.5141 216.274 91.9303C217.051 93.2318 217.503 95.071 216.869 96.3231C216.816 96.4318 216.806 96.5561 216.839 96.6721C216.873 96.7881 216.948 96.8875 217.051 96.951C217.161 97.0105 217.289 97.0245 217.409 96.99C217.529 96.9555 217.63 96.8753 217.691 96.7667C218.123 95.9017 218.328 94.9415 218.288 93.9758C218.248 93.01 217.964 92.0701 217.463 91.2434C214.867 86.5818 209.824 90.1139 206.785 91.0876C202.708 92.3939 199.082 91.7526 193.09 91.7317C192.978 91.7257 192.868 91.7645 192.784 91.8396C192.701 91.9147 192.65 92.0199 192.644 92.1322C192.638 92.2444 192.677 92.3545 192.752 92.4381C192.827 92.5218 192.932 92.5721 193.045 92.5782V92.5782Z" fill="#454545"/>
<path d="M213.805 93.1657C214.081 93.6774 214.282 94.2266 214.4 94.796C214.72 96.1554 214.261 97.7875 214.948 97.9509C216.174 98.2426 216.353 93.9913 214.902 92.4333C214.756 92.23 213.891 91.4557 213.53 91.8177C213.224 92.0894 213.755 93.0688 213.805 93.1657Z" fill="#454545"/>
<path d="M211.176 94.5674C211.51 95.0225 211.758 95.5347 211.908 96.0789C212.336 97.5191 211.772 98.9744 212.457 99.1625C212.953 99.2984 213.909 98.0473 213.302 95.6989C213.106 94.9468 212.721 94.2576 212.182 93.6972C211.781 93.3742 211.059 92.885 210.719 93.2754C210.532 93.5272 210.604 93.6545 211.176 94.5674Z" fill="#454545"/>
<path d="M218.241 90.1072C221.186 89.6474 223.91 91.194 225.329 94.482C225.652 95.2315 226.535 97.0783 225.947 97.6816C224.662 98.9973 221.767 98.852 218.722 99.0819C218.6 99.0841 218.483 99.1344 218.397 99.2218C218.312 99.3093 218.264 99.4269 218.264 99.5493C218.264 99.6095 218.275 99.6692 218.298 99.7249C218.321 99.7807 218.355 99.8313 218.398 99.8739C218.44 99.9166 218.491 99.9504 218.546 99.9734C218.602 99.9965 218.662 100.008 218.722 100.008C220.36 100.219 222.017 100.249 223.662 100.097C224.894 99.995 226.059 99.4911 226.977 98.6629C228.185 97.4222 227.289 95.3911 226.635 93.9129C225.052 90.3324 221.966 88.0457 218.06 89.2855C217.962 89.3196 217.88 89.3885 217.829 89.4791C217.779 89.5696 217.763 89.6757 217.785 89.777C217.808 89.8783 217.867 89.9679 217.951 90.0288C218.035 90.0896 218.138 90.1175 218.241 90.1072V90.1072Z" fill="#9578D3"/>
<path d="M266.736 131.933C262.122 128.758 256.047 127.702 250.388 128.029C248.961 123.43 246.541 119.201 243.3 115.639C243.379 110.362 243.447 105.681 244.055 100.159C244.065 100.06 244.054 99.9592 244.024 99.864C243.993 99.7688 243.942 99.6812 243.876 99.6066C243.809 99.5321 243.727 99.4724 243.636 99.4313C243.545 99.3901 243.446 99.3686 243.346 99.3679C238.326 99.3058 233.307 99.5832 228.325 100.198C225.308 100.649 222.796 100.893 219.956 101.582C219.853 101.608 219.757 101.655 219.675 101.723C219.592 101.79 219.526 101.874 219.481 101.97C219.435 102.066 219.412 102.171 219.412 102.277C219.412 102.383 219.435 102.488 219.481 102.584C226.545 117.021 228.773 133.348 225.837 149.15C223.825 159.643 217.368 167.616 206.563 167.337C205.453 155.526 198.62 140.311 191.29 131.037C191.214 130.94 191.103 130.877 190.981 130.862C190.859 130.846 190.736 130.88 190.639 130.956C190.542 131.031 190.478 131.143 190.463 131.265C190.448 131.387 190.482 131.51 190.557 131.607C197.737 140.778 204.536 156.337 205.377 167.98C205.389 168.131 205.457 168.273 205.566 168.378C205.676 168.483 205.82 168.544 205.972 168.55C217.67 169.181 224.979 160.873 227.189 149.413C230.121 133.612 228.01 117.29 221.154 102.756C225.545 101.92 229.98 101.341 234.438 101.021C237.136 100.867 239.853 100.831 242.577 100.8C242.075 105.308 241.917 111.395 241.868 115.919C241.87 116.016 241.891 116.112 241.93 116.202C241.97 116.291 242.026 116.371 242.097 116.438C245.27 119.58 247.778 124.495 249.102 128.655C242.275 130.16 235.921 137.33 232.774 143.592C232.72 143.683 232.699 143.789 232.712 143.894C232.726 143.999 232.774 144.096 232.849 144.17C229.069 146.281 228.235 151.511 227.167 155.712C225.807 161.067 226.249 170.707 219.737 172.439C217.837 172.43 145.863 172.601 140.719 172.758C139.834 163.237 141.778 153.889 145.017 145.018C146.546 140.829 151.182 133.965 152.403 132.989C152.637 132.799 152.966 132.79 152.928 132.427C152.927 132.372 152.915 132.317 152.892 132.267C152.87 132.216 152.837 132.171 152.796 132.133C152.756 132.096 152.708 132.067 152.656 132.048C152.604 132.029 152.549 132.021 152.494 132.024C152.198 132.08 151.926 132.226 151.717 132.443C150.061 133.957 145.558 140.716 144.08 144.672C140.717 153.677 138.429 163.953 139.53 173.457C139.548 173.614 139.623 173.758 139.742 173.862C139.86 173.966 140.013 174.022 140.17 174.019C147.349 173.807 219.82 173.888 219.987 173.836C227.587 171.923 227.135 161.619 228.537 156.058C229.561 152.005 230.411 146.642 234.142 145.133C244.033 141.136 257.928 141.975 263.225 141.287C270.745 140.317 272.992 136.238 266.736 131.933ZM267.401 138.618C264.049 140.358 259.619 140.033 255.877 140.233C248.507 140.637 240.702 140.993 233.792 143.729C238.055 137.73 241.499 133.226 248.283 130.049C250.681 128.921 255.699 129.453 258.278 129.985C261.812 130.713 266.088 132.55 268.158 135.09C269.404 136.628 269.174 137.697 267.399 138.618H267.401Z" fill="#9578D3"/>
<path d="M230.039 103.574C232.024 106.067 232.548 106.405 234.863 109.004C237.576 112.044 237.09 111.783 240.167 114.849C240.206 114.895 240.254 114.934 240.308 114.962C240.362 114.99 240.42 115.007 240.481 115.013C240.542 115.018 240.603 115.011 240.661 114.993C240.719 114.975 240.772 114.945 240.819 114.906C240.866 114.867 240.904 114.819 240.932 114.766C240.96 114.712 240.977 114.653 240.983 114.592C240.988 114.532 240.981 114.471 240.963 114.413C240.945 114.355 240.916 114.301 240.876 114.254C240.389 113.479 239.862 112.73 239.299 112.008C237.187 109.385 234.935 106.876 232.554 104.495C232.03 104.02 231.103 103.311 230.61 102.957C230.57 102.919 230.523 102.889 230.471 102.869C230.42 102.85 230.365 102.84 230.309 102.842C230.254 102.844 230.2 102.856 230.149 102.879C230.099 102.902 230.054 102.934 230.016 102.975C229.977 103.015 229.946 103.063 229.926 103.115C229.906 103.167 229.897 103.223 229.899 103.279C229.901 103.336 229.914 103.391 229.939 103.441C229.963 103.492 229.997 103.537 230.039 103.574V103.574Z" fill="#9578D3"/>
<path d="M244.146 101.199C246.595 105.417 246.583 108.777 244.695 112.515C244.387 113.161 244.035 113.786 243.643 114.385C243.567 114.48 243.531 114.6 243.542 114.721C243.554 114.842 243.612 114.953 243.705 115.031C243.798 115.109 243.918 115.147 244.039 115.138C244.16 115.128 244.272 115.072 244.352 114.98C244.923 114.439 245.429 113.833 245.86 113.175C248.134 109.557 248.2 103.878 244.809 100.67C244.774 100.627 244.732 100.59 244.683 100.563C244.634 100.536 244.581 100.519 244.526 100.512C244.47 100.506 244.414 100.511 244.361 100.526C244.307 100.542 244.257 100.568 244.214 100.603C244.128 100.674 244.073 100.776 244.06 100.887C244.047 100.999 244.078 101.11 244.146 101.199Z" fill="#454545"/>
<path d="M203.539 168.03C196.944 168.106 198.857 167.78 181.269 168.109C181.209 168.103 181.148 168.109 181.089 168.126C181.031 168.144 180.976 168.173 180.929 168.211C180.834 168.289 180.773 168.401 180.76 168.524C180.748 168.646 180.784 168.768 180.862 168.864C180.94 168.959 181.052 169.02 181.174 169.033C185.033 169.587 186.36 169.365 190.115 169.366C196.486 169.366 198.872 169.721 203.605 168.875C203.717 168.866 203.821 168.813 203.894 168.728C203.967 168.643 204.004 168.532 203.995 168.42C203.986 168.307 203.933 168.203 203.848 168.13C203.762 168.057 203.652 168.021 203.539 168.03Z" fill="#9578D3"/>
<path d="M236.715 116.599C237.161 119.661 236.703 117.148 237.927 122.521C238.512 125.086 238.508 125.696 239.138 127.936C239.144 127.996 239.161 128.054 239.19 128.107C239.218 128.161 239.257 128.207 239.304 128.245C239.351 128.283 239.405 128.311 239.463 128.328C239.521 128.345 239.582 128.35 239.641 128.343C239.763 128.327 239.874 128.264 239.951 128.168C240.027 128.073 240.064 127.951 240.053 127.829C240.079 125.852 239.817 123.882 239.276 121.981C239.009 120.767 238.453 118.546 238.247 118.004C238.157 117.765 237.74 116.774 237.538 116.374C237.524 116.319 237.499 116.268 237.464 116.224C237.43 116.179 237.387 116.142 237.338 116.114C237.289 116.087 237.234 116.069 237.178 116.063C237.123 116.057 237.066 116.062 237.012 116.078C236.908 116.115 236.821 116.188 236.766 116.283C236.712 116.379 236.693 116.491 236.715 116.599V116.599Z" fill="#9578D3"/>
<path d="M227.729 91.1477C228.95 92.4929 227.968 94.7576 228.667 95.0293C229.18 95.2136 229.637 94.2238 229.741 93.6899C229.901 92.951 229.836 92.1814 229.554 91.4798C229.273 90.7782 228.789 90.1766 228.163 89.7521C227.761 89.5232 226.617 89.3959 226.563 89.9307C226.479 90.3525 227.167 90.5226 227.729 91.1477Z" fill="#454545"/>
<path d="M230.475 90.632C230.795 91.0918 230.992 91.6265 231.045 92.1843C231.154 93.2882 230.391 95.2547 231.14 95.4894C231.652 95.667 232.01 94.7237 232.237 94.1746C232.505 93.4559 232.584 92.6809 232.467 91.9231C232.351 91.1653 232.043 90.4498 231.572 89.8444C231.169 89.4834 230.375 88.9153 230.018 89.3229C229.827 89.5746 229.905 89.7153 230.475 90.632Z" fill="#454545"/>
<path d="M233.332 90.7606C233.579 91.2673 233.712 91.8215 233.724 92.3849C233.736 92.9483 233.625 93.5075 233.399 94.0239C233.231 95.0034 232.905 95.4157 233.355 95.6655C233.901 95.9686 234.379 95.0338 234.704 94.5008C235.31 93.1157 235.38 90.9858 234.428 89.9769C234.057 89.5807 233.142 89.0079 232.829 89.4525C232.582 89.7983 232.89 89.8771 233.332 90.7606Z" fill="#454545"/>
<path d="M211.338 95.3516C211.119 94.9765 210.799 94.6697 210.416 94.4656C210.032 94.2614 209.599 94.1679 209.166 94.1955C208.851 94.1609 208.533 94.1942 208.233 94.2932C207.933 94.3921 207.658 94.5545 207.426 94.7691C207.194 94.9838 207.011 95.2458 206.889 95.5374C206.767 95.829 206.709 96.1434 206.719 96.4593C206.712 96.7996 206.776 97.1377 206.907 97.4519C207.038 97.7661 207.233 98.0496 207.479 98.2843C207.194 98.5731 206.809 98.7411 206.403 98.7533C205.997 98.7655 205.602 98.621 205.3 98.3498C205.218 98.2993 205.125 98.2699 205.03 98.2643C204.934 98.2586 204.838 98.2769 204.751 98.3175C203.2 98.9825 199.961 99.9325 198.189 100.543C193.296 102.237 187.909 103.701 182.825 102.843C177.655 101.969 174.965 95.8884 176.515 91.5488C176.553 91.4347 176.545 91.3103 176.493 91.202C176.44 91.0937 176.348 91.0098 176.236 90.9682C176.123 90.9265 175.998 90.9303 175.888 90.9787C175.778 91.0271 175.691 91.1164 175.646 91.2277C173.445 96.7852 176.67 103.22 182.574 104.243C187.884 105.161 193.536 103.693 198.646 101.868C200.81 101.209 202.933 100.421 205.003 99.5098C205.539 99.8015 206.162 99.8898 206.758 99.7584C207.355 99.6269 207.883 99.2846 208.247 98.7944C208.715 98.975 209.227 99.009 209.715 98.892C210.202 98.775 210.643 98.5126 210.978 98.1394C211.314 97.7662 211.528 97.3 211.592 96.8025C211.656 96.3049 211.568 95.7996 211.338 95.3535V95.3516ZM210.198 96.4593C210.202 96.5982 210.179 96.7366 210.13 96.8665C210.08 96.9963 210.005 97.1151 209.91 97.2159C209.814 97.3168 209.699 97.3977 209.572 97.454C209.445 97.5104 209.308 97.541 209.169 97.5442C208.887 97.5373 208.618 97.4197 208.422 97.2168C208.225 97.0139 208.116 96.7419 208.118 96.4593C208.125 96.1062 208.254 95.7665 208.483 95.4979C208.973 95.0761 209.274 94.9203 209.832 95.4903C210.064 95.7601 210.193 96.1036 210.194 96.4593H210.198Z" fill="#454545"/>
<path d="M170.367 175.482C168.337 181.597 162.682 185.525 156.954 184.48C152.483 183.665 149.143 180.066 147.993 175.482H154.76C156.919 178.604 161.158 178.605 163.595 175.482H170.367Z" fill="#454545"/>
<path d="M170.761 175.629C170.785 175.562 170.794 175.491 170.786 175.422C170.778 175.352 170.754 175.284 170.715 175.225C170.677 175.166 170.626 175.117 170.565 175.081C170.505 175.045 170.436 175.024 170.366 175.019L163.597 174.839C163.5 174.84 163.404 174.862 163.317 174.905C163.23 174.948 163.154 175.01 163.094 175.086C161.086 177.604 157.475 178.019 155.337 175.078C155.272 174.986 155.186 174.91 155.086 174.857C154.986 174.804 154.876 174.775 154.763 174.772H147.993C147.884 174.77 147.775 174.793 147.677 174.839C147.578 174.886 147.491 174.955 147.424 175.04C147.356 175.126 147.309 175.226 147.286 175.333C147.263 175.44 147.266 175.55 147.293 175.656C150.022 186.618 162.793 188.719 168.841 179.729C169.688 178.469 170.336 177.086 170.761 175.629V175.629ZM169.716 175.963L163.917 176.117C163.366 176.857 162.652 177.459 161.83 177.877C161.007 178.294 160.099 178.515 159.177 178.523C158.255 178.53 157.343 178.323 156.514 177.919C155.685 177.514 154.962 176.923 154.4 176.192H148.927C149.475 178.074 150.522 179.774 151.957 181.11C153.392 182.446 155.162 183.37 157.079 183.782C162.412 184.768 167.529 181.078 169.72 175.964L169.716 175.963Z" fill="#454545"/>
<path d="M242.317 146.11C242.536 147.237 244.099 153.079 244.397 154.185C244.629 155.048 245.169 157.284 245.838 157.119C246.722 156.9 245.517 152.861 244.809 150.17C244.783 150.075 243.942 146.777 243.596 145.764C243.156 144.473 242.78 143.507 242.34 143.639C241.97 143.739 241.907 144.013 242.317 146.11Z" fill="#454545"/>
<path d="M247.986 149.723C248.357 151.474 248.822 153.202 249.381 154.902C249.881 156.212 250.055 156.871 250.593 156.707C251.091 156.54 250.891 155.974 250.593 154.479C250.556 154.289 248.937 147.169 248.193 145.106C248.035 144.663 247.338 142.791 246.798 142.998C246.17 143.214 246.599 143.948 247.986 149.723Z" fill="#454545"/>
<path d="M253.899 161.753C253.824 160.894 253.487 160.08 252.932 159.42C252.378 158.761 251.633 158.288 250.8 158.068C249.967 157.847 249.087 157.888 248.278 158.187C247.47 158.485 246.773 159.025 246.283 159.734C245.742 160.53 245.393 161.441 245.263 162.395C245.133 163.348 245.226 164.319 245.536 165.231C247.725 170.36 254.521 167.357 253.899 161.753ZM246.83 164.69C246.548 163.83 246.515 162.908 246.735 162.03C246.946 161.134 247.438 160.328 248.14 159.731C249.859 158.211 251.705 158.882 252.363 160.848C252.468 161.186 252.523 161.538 252.529 161.893C253.252 165.135 248.73 168.63 246.83 164.69Z" fill="#454545"/>
<path d="M266.3 152.892C265.496 150.548 264.189 148.409 262.471 146.624C260.753 144.839 258.665 143.45 256.355 142.557L256.171 142.527C253.968 142.55 251.768 142.719 249.587 143.036V142.998H249.564C249.499 143.007 249.438 143.03 249.383 143.066C249.328 143.101 249.282 143.148 249.247 143.203C249.212 143.258 249.19 143.321 249.181 143.385C249.173 143.45 249.179 143.516 249.198 143.578C249.68 145.425 250.408 147.644 250.845 149.555C250.867 149.662 250.923 149.759 251.006 149.831C251.088 149.904 251.192 149.947 251.302 149.954C253.102 150.156 254.808 150.863 256.224 151.993C257.64 153.123 258.708 154.63 259.304 156.34C260.372 159.268 260.509 162.454 259.699 165.464C258.889 168.473 257.17 171.159 254.777 173.155C249.294 177.454 242.462 175.553 239.893 169.202C239.132 167.223 238.807 165.103 238.941 162.986C239.075 160.87 239.665 158.807 240.67 156.94C242.07 154.202 242.931 154.24 242.705 153.468C241.985 151.114 241.397 148.722 240.945 146.303C240.92 146.18 240.864 146.067 240.782 145.973C240.701 145.879 240.596 145.807 240.479 145.765C240.361 145.724 240.235 145.713 240.112 145.735C239.989 145.756 239.874 145.809 239.778 145.888C226.508 157.468 229.613 179.832 244.031 183.653C258.873 187.587 272.223 168.697 266.3 152.892ZM249.701 143.901V143.876H249.725L249.701 143.901Z" fill="#454545"/>
<path d="M198.716 114.246C206.791 115.411 215.517 114.586 216.938 122.701C217.413 125.409 217.066 128.423 216.984 130.89C216.699 139.571 216.106 148.954 215.017 157.673C215.007 157.734 215.01 157.795 215.024 157.855C215.039 157.914 215.065 157.97 215.101 158.019C215.137 158.068 215.183 158.109 215.235 158.14C215.288 158.172 215.346 158.192 215.406 158.201C215.527 158.217 215.65 158.186 215.748 158.113C215.847 158.04 215.912 157.932 215.932 157.811C217.556 148.696 218.033 141.736 218.424 130.939C218.682 128.115 218.65 125.273 218.329 122.456C216.577 112.415 204.979 114.068 198.826 113.404C198.716 113.394 198.606 113.426 198.52 113.494C198.434 113.563 198.377 113.662 198.363 113.772C198.349 113.881 198.377 113.992 198.443 114.08C198.509 114.169 198.607 114.228 198.716 114.246V114.246Z" fill="#454545"/>
<path d="M208.684 132.875C208.625 129.949 208.248 126.558 208.684 123.503C208.706 123.334 208.66 123.163 208.558 123.028C208.455 122.892 208.304 122.801 208.135 122.776C207.223 122.692 206.306 122.635 205.392 122.586C205.065 122.569 192.954 121.478 191.445 121.311C188.839 121.026 187.184 120.731 186.758 119.329C185.975 117.605 185.473 115.767 185.272 113.885C185.233 113.566 184.94 112.08 184.449 112.12C183.879 112.161 183.892 113.77 183.923 114.031C183.992 115.414 184.267 116.778 184.739 118.079C183.412 117.8 182.052 117.704 180.699 117.794C179.595 117.864 178.556 118.343 177.786 119.138C177.017 119.933 176.572 120.987 176.538 122.093C176.509 123.107 176.689 124.115 177.066 125.056C177.444 125.997 178.011 126.851 178.733 127.563C183.982 132.503 191.596 131.335 198.326 128.841C201.176 127.785 204.45 126.543 204.588 123.505C205.71 123.664 205.327 123.6 207.335 123.92C207.182 125.001 207.105 126.093 207.106 127.185C207.095 129.096 207.93 155.611 207.93 157.616C207.926 157.676 207.935 157.736 207.955 157.793C207.975 157.85 208.006 157.902 208.046 157.946C208.087 157.99 208.136 158.026 208.19 158.051C208.245 158.076 208.304 158.09 208.364 158.091C208.425 158.094 208.486 158.085 208.543 158.063C208.6 158.042 208.653 158.01 208.697 157.969C208.742 157.927 208.778 157.877 208.803 157.822C208.828 157.767 208.842 157.707 208.844 157.646C209.508 148.927 208.886 142.95 208.684 132.875Z" fill="#454545"/>
<path d="M218.379 117.237C222.573 119.789 222.416 125.161 222.037 130.053C221.328 139.196 221.108 148.117 219.385 157.413C219.369 157.472 219.366 157.533 219.375 157.593C219.383 157.654 219.405 157.711 219.437 157.763C219.469 157.815 219.511 157.86 219.562 157.894C219.612 157.929 219.668 157.953 219.728 157.965C219.787 157.979 219.849 157.981 219.908 157.97C219.968 157.96 220.026 157.938 220.077 157.905C220.128 157.872 220.172 157.83 220.206 157.779C220.24 157.729 220.264 157.673 220.276 157.613C222.682 148.377 222.578 141.711 223.454 130.158C223.892 124.383 223.834 119.309 218.813 116.504C218.714 116.448 218.597 116.433 218.486 116.461C218.375 116.489 218.28 116.558 218.219 116.655C218.164 116.754 218.149 116.87 218.18 116.979C218.21 117.088 218.281 117.181 218.379 117.237V117.237Z" fill="#454545"/>
<path d="M218.558 161.998C218.558 161.599 218.32 161.783 216.5 160.325C214.724 158.9 214.98 158.604 214.397 158.606C212.575 158.533 210.75 158.572 208.933 158.721C208.768 158.741 208.615 158.818 208.502 158.94C208.389 159.062 208.323 159.22 208.315 159.386C208.201 161.286 208.245 163.785 208.338 165.703C208.349 165.882 208.425 166.05 208.551 166.175C208.678 166.301 208.847 166.375 209.025 166.384C210.916 166.434 212.791 166.024 214.488 165.188C215.958 164.502 217.303 163.575 218.467 162.446C218.525 162.389 218.565 162.316 218.581 162.236C218.598 162.156 218.59 162.074 218.558 161.998Z" fill="#454545"/>
<path d="M220.253 159.528H220.276C219.48 158.629 219.407 158.46 219.041 158.448C218.332 158.416 217.806 158.353 217.006 158.383C216.868 158.39 216.734 158.436 216.622 158.517C216.51 158.598 216.423 158.709 216.372 158.838C216.322 158.966 216.309 159.107 216.336 159.243C216.364 159.378 216.43 159.503 216.526 159.602C217.254 160.317 218.106 160.892 219.041 161.302C219.146 161.354 219.263 161.377 219.38 161.368C219.497 161.359 219.609 161.32 219.706 161.253C220.061 160.966 220.31 160.57 220.415 160.126C220.462 160.023 220.472 159.907 220.442 159.798C220.413 159.689 220.345 159.593 220.253 159.528V159.528Z" fill="#454545"/>
<path d="M126.044 188.422L281.793 186.427C281.915 186.425 282.032 186.374 282.117 186.286C282.202 186.199 282.25 186.081 282.25 185.959C282.25 185.899 282.239 185.839 282.216 185.783C282.193 185.728 282.16 185.677 282.117 185.635C282.075 185.592 282.024 185.559 281.968 185.536C281.913 185.513 281.853 185.501 281.793 185.502L126.044 187.574C125.935 187.579 125.832 187.626 125.757 187.705C125.682 187.784 125.64 187.889 125.64 187.998C125.64 188.107 125.682 188.212 125.757 188.291C125.832 188.37 125.935 188.417 126.044 188.422Z" fill="#454545"/>
</svg>
